PathFileType	4	(X/Y/Z)	1_coords_data.trc
DataRate	CameraRate	NumFrames	NumMarkers	Units	OrigDataRate	OrigDataStartFrame	OrigNumFrames
30.0	30.0	4	21	m	30.0	10	65
Frame#	Time	THUMB_TIP	THUMB_IP	THUMB_MCP	THUMB_CMC	INDEX_TIP	INDEX_DIP	INDEX_PIP	INDEX_MCP	MIDDLE_TIP	MIDDLE_DIP	MIDDLE_PIP	MIDDLE_MCP	RING_TIP	RING_DIP	RING_PIP	RING_MCP	PINKY_TIP	PINKY_DIP	PINKY_PIP	PINKY_MCP	WRIST
X1	Y1	Z1	X2	Y2	Z2	X3	Y3	Z3	X4	Y4	Z4	X5	Y5	Z5	X6	Y6	Z6	X7	Y7	Z7	X8	Y8	Z8	X9	Y9	Z9	X10	Y10	Z10	X11	Y11	Z11	X12	Y12	Z12	X13	Y13	Z13	X14	Y14	Z14	X15	Y15	Z15	X16	Y16	Z16	X17	Y17	Z17	X18	Y18	Z18	X19	Y19	Z19	X20	Y20	Z20	X21	Y21	Z21
8	0.2999999999999987	0.47522284393104125	-0.018669359579026046	-0.17080718839186415	0.48007572487040057	-0.022205905236585943	-0.14862741401518492	0.4745257839340942	-0.032325832760805806	-0.1197205770642481	0.4770668322457347	-0.030956891943651033	-0.07520587079185947	0.5045313955312419	-0.017079270977857663	-0.10774423494717866	0.5223554191959277	-0.01558817119856959	-0.11058691006912469	0.5331184903202371	0.0035612950590711012	-0.12281246015983804	0.49185005096372975	0.014049902460538943	-0.1220768503066223	0.5031794421665814	-0.01904435005991223	-0.08931587439023303	0.5208108293567378	-0.014906974211603363	-0.08918817614977426	0.5377160677518774	0.006608189969387168	-0.09922412030408911	0.49941716752108806	0.029424915820962405	-0.10218033131247473	0.5039438359801525	-0.007518312095891044	-0.07447036421969322	0.5216259370978218	-0.004170078744550332	-0.07340611167001942	0.537778915718988	0.01414922278306785	-0.07827072390578471	0.5052312391176956	0.03796393522630359	-0.08113935652494075	0.5047387474763376	-0.008142222779746855	-0.0568081549986682	0.521631485652259	-0.00584392686893731	-0.05527412995776482	0.5337235678161797	0.011251054962391649	-0.05680878435779302	0.507008915673655	0.035436348162901976	-0.0583195473138044	0.46228308100186094	-0.023011742144276925	-0.051989820119430985
9	0.33333333333333187	0.4750448760159492	-0.01759561521904407	-0.17067913631618703	0.47997079531865017	-0.02140027752915441	-0.14855991698707632	0.47444892969924213	-0.03189412605697506	-0.11978131133710856	0.4770218952782339	-0.03088514610813531	-0.07525882479836987	0.5048918958035906	-0.01680425257868834	-0.10778547087759582	0.522691403456782	-0.015182644298508685	-0.11070915244193025	0.5332906251937046	0.004127041003298082	-0.12282535585375598	0.4919746299259192	0.014405350191299515	-0.12183490683024545	0.5035189498358257	-0.01885345303305097	-0.08940390502703399	0.5211536784133672	-0.014730754205126262	-0.08926353989366176	0.5379872232935758	0.0069141465047126704	-0.09913975323821944	0.49961037126980695	0.029634168641009206	-0.1018166439479693	0.5041847340704373	-0.007454475425832663	-0.07444291270331882	0.5218632724536441	-0.004094222093041555	-0.07335756567450769	0.5380351224625566	0.014248738696506669	-0.0780678773162502	0.5054420488965734	0.03803023030536268	-0.08068570969826461	0.5049007061463623	-0.008234202563086601	-0.056775462431067014	0.5217936056816033	-0.005983514042084193	-0.05517410473408624	0.5339114110595096	0.011106341794487884	-0.05655527789787573	0.5072160141286037	0.03532429357715727	-0.05787058970641734	0.4622830810018609	-0.023011742144276925	-0.051989820119430985
10	0.3666666666666651	0.4751684870941496	-0.01621441790732492	-0.17052977438215877	0.4800032167423853	-0.020354049600699975	-0.1484506249721006	0.47441227258354857	-0.03130858556072169	-0.11985762783445575	0.4769926081343532	-0.03073419801126953	-0.07532784064219211	0.5053518628538014	-0.016434594728455543	-0.10784600476687345	0.5230979496423871	-0.014544244076853063	-0.11092869484308487	0.5333592867222374	0.0050203257166663295	-0.12292629473340444	0.49196419672005665	0.014930121052699863	-0.1215556838807973	0.5039302001654947	-0.018514835419093822	-0.08954009006054864	0.5215545842108783	-0.014347116424173412	-0.08943423449759325	0.5382029892117983	0.0075126520309605205	-0.09914972131057798	0.49965402990273716	0.029985219699412258	-0.10141011056360638	0.5044783012825308	-0.007273986147121048	-0.07444533057775649	0.5221478877280419	-0.003862458142009473	-0.07337426031164362	0.5382432414224569	0.014587516762214925	-0.07792596268385266	0.5055107638287687	0.03821360764655157	-0.08018728400196784	0.5051466028283642	-0.008262714423608042	-0.05677803496282319	0.5220321690346665	-0.0059695386211439105	-0.05515970291050076	0.534097375807854	0.011169965068511312	-0.05637634492544452	0.5073087899801733	0.03529947115812837	-0.05738731288938592	0.46228308100186083	-0.023011742144276925	-0.051989820119430985
11	0.39999999999999825	0.47537663161025234	-0.014498992478253037	-0.17033279316178213	0.48001354093316817	-0.01906693669295023	-0.14829571174017658	0.47431315352208836	-0.030604968863723436	-0.1199549390444683	0.4769280509390453	-0.030565423638776124	-0.07542348108861441	0.5057954760025385	-0.01589501739948196	-0.10802060578075257	0.523462418839538	-0.013652239811122291	-0.11131439986711333	0.5332584054824712	0.006222135190945832	-0.12319117118631662	0.4917614983062138	0.015600859526540334	-0.12127223433430401	0.504369857216469	-0.018034466559946227	-0.08974355737806616	0.5219676444315091	-0.013754536053396493	-0.08973461348237743	0.5383283175704385	0.008389422754998765	-0.09929405973899808	0.4995275264962258	0.030476104283186145	-0.10097484291588799	0.5047858825921737	-0.006978973468264593	-0.07448994089847338	0.5224372170212025	-0.003458147160131153	-0.07347299695580045	0.5383854879549389	0.01515769673572509	-0.07786423701633594	0.5054323383975083	0.038516850950157555	-0.07964206789467843	0.5054581932014415	-0.008239137689473375	-0.0568160346638481	0.5223284319383643	-0.005825170140877467	-0.05521359725990593	0.5342742509894025	0.011410354910414755	-0.05623638873725212	0.5073039669573656	0.03534993040563528	-0.0568560300366332	0.4622830810018609	-0.023011742144276925	-0.051989820119430985
